_________________________  Visit us at _________________________
  
http://p2pdl.com  ____________________________  http://p2pdl.com


Piggy 2012 BRRip 720p x264 AAC - PRiSTiNE


Genre: Thriller 
Plot: Joe, a mild mannered young man is bored by his life. When his beloved brother is murdered Joe
finds solace in Piggy, one of his brother's old friends. Piggy helps Joe to cope with grief, intent
on saving him and helping him get justice for his brother's killing. As their friendship grows Joe
finds himself in an increasing dangerous and murky world of violence and revenge.
Director: Kieron Hawkes
Stars: Paul Anderson, Neil Maskell, Martin Compston.
Rated: N/a


Info: 
http://www.imdb.com/title/tt1951218/

Trailer:


Format                         : MPEG-4
File size                      : 597 MiB
Duration                       : 1h 46mn
Overall bit rate               : 785 Kbps
Video Format                   : AVC
Video Bit rate                 : 699 Kbps
Width                          : 1 280 pixels
Height                         : 544 pixels
Display aspect ratio           : 2.35:1
Frame rate mode                : Constant
Frame rate                     : 24.000 fps
Stream size                    : 531 MiB (89%)
Writing library                : x264 core 129 r2245
Audio Format                   : AAC
Audio Bit rate                 : 83.4 Kbps
Channel(s)                     : 2 channels
Channel positions              : Front: L R
Sampling rate                  : 48.0 KHz
Stream size                    : 63.4 MiB (11%)
Language                       : English
Subtitle                       : N/a
Source                         : 720p.BluRay.x264-SONiDO(Thanks)

Sceenshots:
 
http://cdn.piczend.com/images/fa4ddJTG/1363369426_1.jpg 
http://cdn.piczend.com/images/30Z1lUWv/1363369421_2.jpg 
http://cdn.piczend.com/images/9ghpHq3J/1363369422_3.jpg 
http://cdn.piczend.com/images/AeSlJ2Ea/1363369422_4.jpg 
http://cdn.piczend.com/images/t3ZnlpRr/1363369422_5.jpg 
http://cdn.piczend.com/images/9BogUsEA/1363369423_6.jpg


----------------------------------------------------------------------------------------------------


Encoded using revolutionary 10bit encoding, which enables us to provide you more crispier 
and sharper images at small sizes, just make sure you follow our instructions without a fault.
Recommend to you to use latest version of VLC player. Install K-Lite Codec Pack or shark007 codecs
in case of any kind of problem in playback (For non-VLC Media Player users). Alternatively, install
Core AVC codecs, the fastest decoder that there is coupled with Community Center Codec Pack and play
on Windows Media Player Classic. Check sample to be sure.
Enjoy!

Greets to: VYTO, a2zRG, MusiK_KinG, Kuroyukihime, TorDigger, Ash968, StyLishSaLH, Masta and staff members at
ExtraTorrent, TPB, H33T, KAT, 1337x, PublicHD, Ahashare, BTScene,LimeTorrents, TorrentMafia,
P2PDL, and all others.

Encoder Notes: Encoder Notes: Looking For Early Access To Anything You Can Provide DVDScr, R5, DVDR, BluRay, Direct
Audio, Music Releases and Seedboxes. We require dedicated servers, so as to do more and fast releases of movies.
If You Got anything to offer contact us at "prg@hush.com".